<svg version="1" xmlns="http://www.w3.org/2000/svg" width="1366.667" height="1366.667" viewBox="0 0 1025.000000 1025.000000"><path d="M167.5 508.9v440h84.7l84.8-.1.1-10.1c.1-13.9.1-38.5 0-42.4l-.1-3.2h-54.6c-30 0-54.8-.2-55.1-.4-.6-.7-.6-766.7 0-767.4.3-.2 25.1-.5 55.1-.4H337l.1-2.2V69.5l-84.8-.3-84.8-.2v439.9zM388 69.7c-9.2 2.8-13.2 7.6-12.9 15.1.3 6.7 4.7 10.7 16.7 15.1 5.1 1.8 10.3 4.2 11.7 5.3 5 3.9 1.8 11-5.8 12.8-4 .9-13.3-.4-18.5-2.6-4.1-1.7-5.1-.9-4.4 3.6.4 2.5 1.1 3.2 4.6 4.2 2.2.6 8.2 1.2 13.1 1.2 7.8.1 9.6-.2 13.4-2.4 7-3.9 10-10.5 7.8-17.5-1.5-5-5.4-7.7-17.1-11.9-5.4-1.9-10.7-4.3-11.7-5.2-1.9-1.7-2.5-6-1.1-8 2.5-3.7 12-4.6 20.7-2 2.8.9 5.1 1.6 5.3 1.6.2 0 .2-1.7 0-3.7-.3-3.1-.8-3.8-3.3-4.5-3.6-1-16.4-1.8-18.5-1.1zM688 97v27.9l55-.2c36.1-.1 55 .1 55.1.8.1.5.2 173.5.3 384.2l.1 383.3-4 .1H688v55.8h84.9l84.8-.1V69H688v28zM460.6 84.9c-3.2 8-6.1 15.5-6.6 16.6-4.1 9.3-8.6 21.5-7.9 21.6 5.7.8 6.2.5 8.7-5.6 1.3-3.3 2.6-6.2 2.8-6.5 1-1 23.5-.6 24.3.5.5.5 1.2 2.1 1.6 3.5.4 1.4 1.4 3.9 2.2 5.6 1.4 3.2 2.1 3.4 9.4 2.5.3-.1-3.2-9.4-7.8-20.9-4.6-11.4-8.5-21.2-8.7-21.7-.7-2.7-3.9-9.5-4.5-9.6-.3-.1-2.2-.2-4.2-.3l-3.7-.2-5.6 14.5zm13.9 7.2c2.5 6.2 4.3 11.4 4.1 11.6-.2.2-4.4.2-9.3.1l-8.9-.3 4.5-11.7c2.5-6.4 4.7-11.5 4.9-11.4.1.2 2.3 5.5 4.7 11.7zM529.4 71.1c-.8 1.4-.2 51.9.7 52 .5.1 2 .1 3.4.1s2.9 0 3.4-.1c.5 0 .8-4.7.8-10.3l-.1-10.2 2.7-.7c3.5-.9 4.8.2 13.9 12l7.3 9.5 4.8.1c2.6.1 4.7-.1 4.7-.5 0-.5-3.9-5.9-8.7-12.1-7.8-10.1-8.5-11.4-6.9-12.3 6.4-3.9 9.6-8.8 9.6-15 0-5.1-1.7-8.1-6.1-10.6-3.4-1.9-5.7-2.2-16.5-2.4-6.9-.1-12.7.1-13 .5zm24.7 8.8c4.6 5.7.2 13.4-8.6 14.8-7.6 1.3-8 1-7.8-5 .1-2.8.2-6.9.2-9.1l.1-3.8 7.1.4c6 .3 7.4.8 9 2.7zM608 97v26.6h3.8c2-.1 3.9-.4 4.2-.8.3-.3.4-4.9.3-10l-.1-9.5 3.9.2c5.6.3 13.2-1.1 17.4-3.1 11.6-5.4 12.5-23 1.5-27.9-2.9-1.3-7.1-1.8-17.4-1.9l-13.6-.2V97zm25-18.7c1.3.7 3.1 2.4 3.9 3.9 1.9 3.3.2 9.5-3.4 12.1-2.8 2-9.4 3.4-14.1 2.9l-3.1-.3v-10l.1-9.9h7c3.9 0 8.2.6 9.6 1.3z"/><path d="M680.5 167c-3.3 2.1-16.1 10.1-28.5 17.7-12.4 7.7-27.9 17.3-34.4 21.4-6.5 4.1-13.1 8.1-14.5 8.9-1.4.8-10.5 6.4-20.1 12.4-19.1 11.9-119.4 74.1-192.3 119.3-25.2 15.6-47.6 29.5-49.7 30.9l-4 2.7 23.3 14.4c12.7 8 24.8 15.5 26.7 16.8 3 2 124.2 77.4 203 126.3 14.6 9 28.1 17.5 30 18.7 5.6 3.6 39.2 24.6 42.5 26.5 1.7.9 8.1 4.9 14.3 8.8 10.2 6.5 11.2 6.9 11.3 4.9.4-10.5.1-83.7-.3-84.9-.4-.8-2.8-2.8-5.5-4.3-2.6-1.6-20-12-38.5-23.2-18.6-11.2-35.1-21.1-36.7-22.1-1.7-.9-14.6-8.7-28.7-17.2s-27.1-16.4-29-17.5c-1.9-1.1-11.5-7-21.5-13-10-6.1-19.8-12-21.8-13.1-2-1.2-10.7-6.4-19.4-11.6l-15.8-9.5 4.8-3c2.6-1.7 10.7-6.5 17.8-10.8 20.1-12.1 142.2-85.6 149.9-90.3 3.7-2.3 7.2-4.2 7.7-4.2s.9-.5.9-1c0-.6.4-1 .8-1 1.2 0 32.4-18.8 34.1-20.5 1.2-1.2 1.4-8.4 1.3-42.7 0-47 0-43.8-.9-43.7-.5 0-3.5 1.7-6.8 3.9zM337 462.2l.1 43.3 26.2 15.7c14.4 8.7 35.2 21.2 46.2 27.8 11 6.6 20.9 12.5 22 13.2 1.1.6 21.4 12.9 45 27.1 23.7 14.3 44.2 26.7 45.7 27.6 10.1 5.9 28.6 17.2 30 18.3 1.6 1.2.2 2.2-12.3 9.8-7.8 4.7-16.9 10.1-20.2 12.1-3.4 2-30.3 18.1-59.7 35.9-29.4 17.8-69 41.6-88 53.1l-34.5 20.7-.3 44.1-.2 44.1 10.7-6.7c6-3.6 27.9-17.3 48.8-30.3s51.3-31.9 67.5-42c61.8-38.5 86.7-54 93.5-58.3 3.9-2.4 11.7-7.3 17.5-10.9 29-18 80.3-49.9 90.5-56.3 2.8-1.7 8.9-5.6 13.7-8.6 8.1-5 10.3-6.9 7.9-6.9-.8 0-18.4-10.7-38.6-23.5-2.7-1.7-10.8-6.8-18-11.2-33.7-20.8-66.7-41.3-86.5-53.6-5.8-3.6-17-10.6-25-15.5-31.3-19.3-110.7-68.5-114-70.7-1.9-1.2-15.8-9.9-30.7-19.1-15-9.3-29.2-18.1-31.5-19.6-2.4-1.4-4.6-2.7-5-2.7-.5-.1-.8 19.4-.8 43.1zM469 893.8c-9.4 1.3-14.1 5.6-14.8 13.5-.4 4.7-.1 5.7 2.3 8.5 3.1 3.7 7 5.9 16.7 9.2 3.7 1.3 7.9 3.3 9.4 4.5 2.4 1.9 2.6 2.6 2 5.9-.6 3.2-1.4 4-5 5.6-5 2.3-11.9 2-20-.9-4.9-1.7-5.5-1.7-5.8-.2-1 4 .6 6.4 5.4 7.6 12.5 3.1 25.4 1 30.7-5 1.7-2 3.2-4.3 3.2-5.3.5-7.3.1-9.5-2.4-12.3-2.7-3.2-6-4.9-16.2-8.4-4.4-1.5-9-3.6-10.2-4.8-3.2-2.9-3-7 .4-9.7 2.4-1.9 3.7-2.1 9.3-1.7 6.2.5 8.9.9 13.1 2.2 1.6.5 1.9.1 1.9-2.9 0-3.7-.4-4-7-5.1-5-.9-10.1-1.1-13-.7zM379.3 894.8c-1.8.3-2.3 1-2.3 3.2v2.9l7.3.3 7.2.3.1 19c0 10.4-.1 19.5-.3 20.1-.2.6-2.8 1-6.3.9-7-.2-8.3.4-7.8 3.6l.3 2.4 18 .1c9.9.1 18.3 0 18.7-.2.3-.2.3-1.6-.1-3.2-.7-2.6-1-2.7-7.2-2.7h-6.4l-.3-20.3-.2-20.2h6.9c7.1 0 8.3-.7 7.3-4.2-.4-1.5-2.3-1.7-16.6-2-8.8-.2-17.1-.2-18.3 0zM531.4 894.9c-.2.2-.4 1.7-.4 3.3v2.8h13.9l.3 14.7c.2 8.2.2 17.3 0 20.4l-.3 5.6-6.9-.2-7-.2v6.4h37V941.4l-7 .1c-5.6.1-7-.2-7.1-1.5-.1-1.4 0-30.6.1-36.3 0-2.7 0-2.7 7-2.7h7v-3c0-2.4-.4-3-2.2-3.1-11.4-.3-34.1-.3-34.4 0zM608.9 894.9c-1.2.5-1.4 5.2-1.4 26.6v26l4.3.2 4.2.2V921l9.8 10.7c15.2 16.8 14.6 16.3 19.8 16.1 2.4-.1 4.3-.5 4.2-.9-.3-.7-12.7-14.5-21.1-23.3-3.5-3.7-3.6-4-2-5.6 1-.9 3.6-3.9 5.8-6.5 2.2-2.7 6.2-7.4 8.8-10.4 4.1-4.7 4.5-5.6 3.1-6.2-3.2-1.1-7.1.5-10 4.1-1.6 1.9-3.4 4-4 4.6-.6.7-3.9 4.6-7.5 8.8l-6.4 7.7-.3-12.5-.3-12.4-2.8-.4c-1.6-.2-3.5-.2-4.2.1zM465.6 950.9c-.2.3-.3 1.7-.1 3.1.2 2.3.5 2.5 5.6 2.5 5.3 0 5.4 0 5.6-3.2l.3-3.2h-5.5c-3 .1-5.7.4-5.9.8z"/></svg>