<?xml version="1.0" standalone="no"?>
<!DOCTYPE svg PUBLIC "-//W3C//DTD SVG 20010904//EN"
 "http://www.w3.org/TR/2001/REC-SVG-20010904/DTD/svg10.dtd">
<svg version="1.0" xmlns="http://www.w3.org/2000/svg"
 width="1025.000000pt" height="1025.000000pt" viewBox="0 0 1025.000000 1025.000000"
 preserveAspectRatio="xMidYMid meet">
<metadata>
Created by potrace 1.11, written by Peter Selinger 2001-2013
</metadata>
<g transform="translate(0.000000,1025.000000) scale(0.100000,-0.100000)"
fill="#000000" stroke="none">
<path d="M1688 9552 l-28 -3 0 -4414 0 -4414 853 2 852 2 0 278 0 277 -25 1
c-14 0 -263 1 -555 2 l-530 2 0 3853 0 3852 25 1 c14 0 264 1 555 2 l530 2 0
278 c0 152 -2 277 -5 278 -18 2 -1650 3 -1672 1z"/>
<path d="M6909 9552 l-26 -3 0 -278 1 -278 548 0 c302 0 551 -3 554 -6 4 -4 8
-7417 4 -7674 l0 -33 -527 1 c-291 0 -540 0 -554 0 l-26 -1 0 -279 1 -279 852
0 852 0 0 4414 0 4414 -21 1 c-74 2 -1637 3 -1658 1z"/>
<path d="M3841 9537 c-44 -17 -88 -61 -94 -95 -3 -15 -3 -45 -1 -67 5 -54 43
-85 161 -131 113 -44 143 -66 143 -103 0 -86 -120 -115 -258 -63 -28 11 -52
18 -53 16 -1 -2 -1 -15 -1 -29 0 -46 2 -58 8 -52 3 3 18 1 33 -5 14 -5 65 -12
112 -14 152 -6 239 48 240 149 0 92 -30 119 -199 178 -85 30 -112 52 -112 93
0 50 30 71 102 73 33 1 81 -5 107 -13 61 -18 61 -18 61 16 0 24 -6 33 -27 41
-45 17 -183 21 -222 6z"/>
<path d="M4650 9519 c0 -5 -8 -29 -19 -52 -10 -23 -30 -71 -44 -107 -14 -36
-50 -129 -81 -207 -31 -78 -56 -144 -56 -147 0 -3 15 -6 33 -6 32 0 35 3 58
63 l24 62 124 0 123 0 23 -60 c22 -59 23 -60 63 -63 47 -3 50 3 28 51 -8 18
-54 132 -102 255 l-88 222 -43 0 c-24 0 -43 -5 -43 -11z m89 -204 c22 -61 41
-114 41 -118 0 -4 -42 -7 -94 -7 -93 0 -94 0 -89 23 3 12 9 27 13 32 3 6 22
52 40 102 19 51 37 90 41 85 3 -4 25 -57 48 -117z"/>
<path d="M5289 9523 c-1 -4 -2 -124 -3 -266 l-1 -257 41 0 42 0 0 88 c1 145
-3 132 40 131 35 0 41 -5 118 -107 l80 -107 47 -3 c26 -2 47 0 47 3 0 4 -36
54 -81 112 -44 59 -83 111 -85 117 -2 6 11 20 28 31 69 43 98 131 65 195 -25
50 -75 67 -212 69 -69 1 -125 -1 -126 -6z m223 -65 c57 -20 52 -113 -8 -153
-20 -14 -50 -22 -83 -24 -57 -2 -53 -10 -53 94 0 19 1 49 1 66 l1 30 58 -2
c31 -1 69 -6 84 -11z"/>
<path d="M6088 9523 c-3 -7 -3 -492 1 -515 1 -5 18 -8 40 -8 l38 0 -1 91 c-1
50 1 94 4 99 3 5 34 10 69 11 110 4 180 40 212 107 41 83 7 184 -70 210 -33
12 -288 16 -293 5z m239 -63 c77 -27 73 -140 -7 -179 -36 -18 -149 -29 -151
-14 -3 25 -4 189 -1 196 5 11 125 9 159 -3z"/>
<path d="M6435 8335 c-242 -151 -454 -282 -472 -292 -17 -10 -175 -107 -350
-216 -175 -109 -327 -204 -337 -210 -11 -7 -45 -28 -75 -47 -31 -19 -65 -40
-76 -46 -11 -6 -85 -52 -165 -102 -162 -101 -421 -262 -448 -277 -22 -13 -641
-398 -707 -440 -27 -17 -137 -85 -242 -150 -106 -65 -193 -122 -193 -126 0 -4
51 -38 113 -76 61 -39 371 -231 687 -428 316 -197 679 -423 805 -501 127 -79
235 -148 242 -154 7 -5 14 -10 17 -10 4 0 326 -199 396 -245 19 -12 190 -119
380 -237 190 -118 445 -277 568 -354 238 -149 294 -183 302 -184 4 0 5 829 1
867 0 6 -16 20 -33 31 -18 11 -107 64 -198 119 -91 56 -183 111 -206 124 -22
13 -100 60 -173 104 -72 44 -144 87 -159 96 -15 9 -268 162 -562 339 -294 178
-604 364 -687 414 -84 50 -153 94 -153 97 0 3 15 13 33 22 17 9 185 109 372
222 187 114 502 304 700 422 198 119 383 231 410 248 28 18 100 61 160 97 61
36 193 115 294 177 101 61 188 111 192 111 5 0 10 3 10 8 5 25 4 872 -1 872
-3 0 -203 -124 -445 -275z"/>
<path d="M3363 5611 c0 -237 3 -434 6 -438 5 -7 101 -67 173 -108 24 -14 181
-109 373 -225 88 -54 178 -108 201 -121 23 -13 241 -145 485 -292 244 -148
453 -274 464 -280 10 -7 37 -23 60 -37 22 -13 49 -30 60 -36 29 -16 68 -40
207 -124 68 -41 129 -78 137 -81 17 -6 18 -6 -279 -184 -129 -78 -464 -281
-745 -450 -508 -307 -709 -428 -789 -475 -23 -14 -112 -67 -198 -119 l-155
-94 0 -439 c0 -241 2 -438 4 -438 4 0 236 143 318 195 28 18 219 138 425 266
206 128 623 387 925 575 303 188 585 364 628 391 42 26 101 63 130 82 28 18
66 42 82 51 47 27 999 621 1005 627 3 2 -2 9 -10 14 -8 5 -68 42 -132 82 -65
39 -309 191 -544 337 -235 146 -439 272 -453 280 -14 8 -27 18 -29 23 -2 4 -8
7 -12 7 -8 0 -104 58 -240 146 -19 12 -84 52 -145 89 -60 37 -126 77 -145 90
-19 12 -143 89 -275 170 -132 81 -262 162 -290 180 -27 18 -223 139 -435 270
-212 131 -421 261 -465 288 -44 28 -98 61 -120 74 -22 13 -78 48 -125 78 -47
30 -88 54 -91 55 -3 0 -6 -193 -6 -429z"/>
<path d="M4617 1260 c-50 -25 -75 -56 -83 -107 -13 -87 33 -132 199 -194 76
-29 107 -54 107 -88 0 -84 -107 -114 -242 -68 -66 23 -66 23 -70 2 -5 -27 4
-59 19 -62 6 -1 26 -6 45 -10 18 -4 71 -7 118 -7 67 0 94 5 126 22 92 47 116
168 46 229 -32 28 -51 36 -145 69 -100 35 -127 55 -127 98 0 50 30 71 102 73
33 1 81 -5 107 -13 62 -19 63 -19 59 18 -3 29 -7 33 -50 44 -71 18 -167 15
-211 -6z"/>
<path d="M3760 1230 l0 -30 73 0 72 0 0 -202 0 -203 -72 -3 -73 -3 0 -29 0
-30 185 0 185 0 0 30 0 30 -70 0 -70 0 -1 48 c0 42 0 336 1 355 0 4 32 7 70 7
l70 0 0 30 0 30 -185 0 -185 0 0 -30z"/>
<path d="M5310 1230 l0 -29 73 -3 72 -3 0 -200 0 -200 -72 -3 -73 -3 0 -29 0
-30 185 0 185 0 0 30 0 30 -70 0 c-60 0 -70 3 -71 18 -1 17 0 370 1 385 0 4
32 7 70 7 l70 0 0 30 0 30 -185 0 -185 0 0 -30z"/>
<path d="M6080 995 l0 -265 40 0 c25 0 40 5 41 13 0 6 1 65 2 130 0 64 3 117
6 117 3 0 15 -11 26 -24 24 -28 184 -203 203 -223 8 -7 35 -13 64 -13 l50 0
-55 58 c-30 31 -75 79 -98 106 -24 27 -56 62 -71 79 -16 16 -28 33 -28 38 0 7
45 65 70 89 3 3 30 34 60 70 30 36 58 67 62 68 21 9 4 22 -30 22 -35 0 -43 -6
-137 -116 -54 -63 -104 -123 -111 -131 -9 -13 -11 9 -12 103 0 65 -1 125 -1
132 -1 7 -16 12 -41 12 l-40 0 0 -265z"/>
<path d="M4650 675 l0 -34 55 0 c30 1 56 4 56 8 11 62 12 61 -52 61 l-59 0 0
-35z"/>
</g>
</svg>
